<svg width="240" height="240" viewBox="0 0 240 240" fill="none" xmlns="http://www.w3.org/2000/svg">
<g clip-path="url(#clip0_531_2)">
<path fill-rule="evenodd" clip-rule="evenodd" d="M208.667 116.061C207.389 114.784 191.072 94.228 188.314 90.831C185.353 87.4341 184.075 88.0728 182.159 88.2906C180.257 88.5083 159.687 92.1085 157.35 92.3118C155.012 92.7327 153.532 93.5892 155.012 95.7087C156.29 97.6104 169.849 116.7 172.825 121.157L118.764 134.091L75.9393 62.2039C74.2408 59.6634 73.8199 58.8069 70.0019 59.0247C66.184 59.2424 36.2939 61.7829 34.1744 61.7829C32.0404 62.0006 29.7178 62.8426 31.8372 67.938C33.9567 73.0189 67.8825 145.951 68.7245 148.071C69.5664 150.19 72.1214 153.587 77.841 152.31C83.7784 150.829 104.131 145.53 115.367 142.554C121.304 153.152 133.179 174.782 135.516 177.961C138.478 182.2 140.612 181.358 145.054 180.08C148.654 179.021 200.61 160.367 202.932 159.307C205.27 158.247 206.75 157.608 205.052 155.271C203.774 153.573 190.216 135.122 183.001 125.584C187.879 124.307 205.473 119.647 207.389 119.008C209.509 118.398 209.93 117.339 208.667 116.061ZM110.489 136.211C109.851 136.428 79.5395 143.629 78.0443 144.05C76.3458 144.471 76.3458 144.267 76.3458 143.629C75.9393 142.99 40.315 69.201 39.6763 68.359C39.2553 67.517 39.2553 66.6605 39.6763 66.6605C40.0973 66.6605 68.3035 64.1201 69.1454 64.1201C70.2052 64.1201 69.9874 64.3378 70.4229 64.9621C70.4229 64.9621 110.068 133.452 110.707 134.512C111.549 135.572 111.128 135.993 110.489 136.211ZM195.732 152.107C196.153 152.949 196.792 153.384 195.093 153.805C193.613 154.444 143.994 171.196 142.934 171.617C141.875 172.038 141.236 172.256 139.973 170.34C138.696 168.438 122.582 140.653 122.582 140.653L175.38 126.876C176.657 126.455 177.078 126.238 177.92 127.515C178.762 128.996 195.311 151.468 195.732 152.107ZM199.115 114.784C197.837 115.002 178.544 119.879 178.544 119.879L162.648 98.2491C162.227 97.6104 161.806 96.9716 162.866 96.7684C163.926 96.5507 181.956 93.3715 182.798 93.1682C183.64 92.9505 184.278 92.7473 185.338 94.228C186.398 95.5055 199.971 112.882 200.61 113.521C201.234 114.16 200.392 114.581 199.115 114.784Z" fill="#FB503B"/>
</g>
<defs>
<clipPath id="clip0_531_2">
<rect width="178.383" height="122.13" fill="white" transform="translate(31 59)"/>
</clipPath>
</defs>
</svg>
